<?xml version="1.0" encoding="UTF-8"?>
<svg xmlns="http://www.w3.org/2000/svg" width="512" height="512" viewBox="0 0 512 512">
  <defs>
    <linearGradient id="g1" x1="374.64" y1="461.35" x2="136.88" y2="49.55" gradientUnits="userSpaceOnUse">
      <stop offset="0" stop-color="#0097d7"/>
      <stop offset=".24" stop-color="#0f72b6"/>
      <stop offset=".77" stop-color="#361763"/>
      <stop offset=".9" stop-color="#40004e"/>
    </linearGradient>
  </defs>
  <polygon fill="#40004e" points="68.38 327.9 68.38 173.13 113.55 173.13 207.37 266.94 207.37 173.13 256.33 173.13 229.57 239.09 244.46 255.01 223.41 327.9 202.88 327.9 113.81 239.09 113.81 327.9 68.38 327.9"/>
  <polygon fill="#0097d7" points="445.18 327.39 399.1 327.9 399.1 244.74 332.63 327.13 295.79 244.74 276.16 327.9 231.11 327.9 253.06 252.44 238.94 236.91 264.91 172.17 312.2 172.17 345.72 247.03 400.3 172.17 445.18 172.17 445.18 327.39"/>
  <path fill="url(#g1)" d="M255.55,18.11C124.25,18.11,17.83,123.54,17.83,254.82s106.43,238.72,237.72,238.72,237.71-107.43,237.71-238.72S386.83,18.11,255.55,18.11ZM255.55,486.94c-127.64,0-231.12-104.48-231.12-232.12S127.91,24.72,255.55,24.72s231.12,102.48,231.12,230.1-103.48,232.12-231.12,232.12Z"/>
</svg>
